<svg id="svg" xmlns="http://www.w3.org/2000/svg" xmlns:xlink="http://www.w3.org/1999/xlink" width="400" height="378.9473684210526" viewBox="0, 0, 400,378.9473684210526"><g id="svgg"><path id="path0" d="M150.459 15.959 C 111.517 35.391,91.401 62.745,84.651 105.445 C 80.570 131.261,80.867 132.301,91.508 129.445 C 97.626 127.803,112.652 126.427,124.900 126.388 C 144.242 126.325,147.602 124.585,150.474 113.142 C 159.885 75.648,209.939 61.761,237.247 89.069 C 256.950 108.772,257.235 129.331,238.320 166.687 C 206.336 229.853,270.134 253.053,303.378 190.344 C 360.916 81.810,256.688 -37.050,150.459 15.959 M76.316 149.386 C -42.394 205.506,-3.749 378.722,127.525 378.918 C 161.980 378.970,199.694 359.569,183.997 349.868 C 180.985 348.007,172.703 337.267,165.591 326.002 C 154.091 307.785,150.918 305.869,136.889 308.675 C 88.369 318.379,53.424 260.241,86.394 224.666 C 100.346 209.611,111.067 206.070,148.933 204.007 C 170.576 202.828,175.611 200.365,184.195 186.760 C 211.663 143.221,141.081 118.768,76.316 149.386 M319.720 182.218 L 305.402 211.804 318.491 227.358 C 339.443 252.259,333.642 285.031,305.318 301.762 C 272.156 321.351,245.929 308.960,220.827 261.842 C 205.768 233.576,172.820 232.524,159.768 259.893 C 137.998 305.547,213.826 379.218,282.190 378.832 C 388.816 378.229,440.248 230.254,356.131 166.094 C 333.676 148.967,336.393 147.764,319.720 182.218 " stroke="none" fill="#000000" fill-rule="evenodd"></path></g></svg>